PathFileType	4	(X/Y/Z)	/home/abdul/Desktop/myosuite/custom_workspace/IK/output/S14_12_3.trc
DataRate	CameraRate	NumFrames	NumMarkers	Units	OrigDataRate	OrigDataStartFrame	OrigNumFrames
200.0	200.0	39	3	mm	200.0	1861	2126
Frame#	Time	V_Shoulder			V_Elbow			V_Wrist		
		X1	Y1	Z1	X2	Y2	Z2	X3	Y3	Z3

1861	9.3	-153.96818570995748	673.9493436071178	317.5261572630071	-190.15322948841862	457.166343832768	50.83281567763392	-100.70543689247108	233.86912892137366	51.91328689618469
1862	9.305	-154.00465444619553	674.1682720670788	317.44311630435556	-190.61641433701476	457.4345500719074	50.778718666178186	-101.731588285226	234.28842420695267	52.11722024607718
1863	9.31	-154.04236250701152	674.3961111889232	317.35920789683786	-191.0897872798903	457.7155812861099	50.72162587735984	-102.7876254526742	234.73104467990095	52.31222435194871
1864	9.315	-154.08132752921395	674.6329966910492	317.2744719885076	-191.5731275053801	458.0096507697695	50.66147632000111	-103.8729733268727	235.19756117269117	52.49753081670955
1865	9.32	-154.12156731108064	674.8790574982153	317.1889480975114	-192.0661899010685	458.316955702268	50.598208806255705	-104.98697653961665	235.68852441148118	52.672372910822496
1866	9.325	-154.16309984001953	675.1344154731494	317.10267516005814	-192.56870518615187	458.6376762051457	50.531762133690066	-106.12889970445701	236.20446293826177	52.83598810134549
1867	9.33	-154.2059433210226	675.3991851581469	317.0156913782162	-193.0803801226941	458.9719744243031	50.462075279438764	-107.2979279820414	236.74588102243212	52.987620625949305
1868	9.335	-154.2501162057665	675.673473527262	316.92803406809145	-193.6008978065263	459.31999364105286	50.38908760599229	-108.49316793183249	237.31325656879736	53.12652410175114
1869	9.34	-154.29563722220442	675.9573797496697	316.83973950894705	-194.1299180382104	459.6818574158101	50.31273907809378	-109.71364865203188	237.90703902926748	53.251964158448956
1870	9.345	-154.3425254044886	676.2509949647497	316.7508427938326	-194.667077774147	460.0576687681628	50.23297049013986	-110.95832320827907	238.52764732580326	53.36322108493292
1871	9.35	-154.39080012305297	676.5544020694115	316.661377682292	-195.21199165756454	460.447509397001	50.14972370339905	-112.22607035041469	239.17546779239586	53.45959247829174
1872	9.355	-154.44048111468206	676.8676755181535	316.5713764557235	-195.76425262878107	460.8514389443015	50.062941892280435	-113.5156965152968	239.85085214408326	53.54039588392516
1873	9.36	-154.49158851238556	677.1908811363128	316.4808697759613	-196.32343261378236	461.2694943060739	49.972569798806035	-114.82593811235057	240.55411548119451	53.60497141532027
1874	9.365	-154.54414287489243	677.5240759469306	316.3898865476485	-196.88908328981358	461.7016889938612	49.87855399436242	-116.15546408721637	241.28553433717087	53.65268434195153
1875	9.37	-154.59816521557653	677.8673080116229	316.29845378496225	-197.46073692633797	462.14801255006284	49.780843147731616	-117.50287875755194	242.0453447784397	53.68292763372236
1876	9.375	-154.65367703061995	678.2206162858146	316.206596483247	-198.0379072993754	462.60843002020835	49.67938829832937	-118.86672491374387	242.83374056490635	53.69512445038123
1877	9.38	-154.71070032621995	678.5840304886489	316.1143374960997	-198.6200906769007	463.0828814851528	49.57414313350931	-120.24548717600143	243.65087137968544	53.68873056441781
1878	9.385	-154.76925764464283	678.9575709878584	316.02169741844006	-199.206766872654	463.5712816559952	49.46506426872703	-121.63759559804812	244.49684113670702	53.66323670607579
1879	9.39	-154.82937208892704	679.3412486998377	315.92869447608274	-199.79740036539874	464.0735195343392	49.35211152929777	-123.0414295064007	245.37170637481108	53.6181708193077
1880	9.395	-154.89106734603922	679.7350650051221	315.835344422313	-200.39144148035675	464.58945814031506	49.23524823242637	-124.455321563039	246.27547474687543	53.553100217743605
1881	9.4	-154.95436770828647	680.1390116794396	315.7416604419468	-200.9883276292545	465.118934310575	49.1144414681387	-125.87756203812832	247.2081036124137	53.46763363004968
1882	9.405	-155.01929809279162	680.55307084046	315.6476530633361	-201.58748460513527	465.6617585682482	48.989662377701336	-127.30640327836792	248.1694987419256	53.36142312441277
1883	9.41	-155.08588405883953	680.9772149103305	315.5533300787567	-202.18832792782572	466.21771506661014	48.86088642807965	-128.74006435550913	249.1595131410824	53.234165902303104
1884	9.415	-155.15415182290795	681.4114065940432	315.45869647358955	-202.79026423569738	466.78656160797493	48.728093680956036	-130.17673587862052	250.1779460025844	53.085605952136845
1885	9.42	-155.22412827120002	681.8555988736481	315.3637543646806	-203.3926927191316	467.36802973906526	48.59126905480879	-131.61458495278362	251.22454179323472	52.91553555398241
1886	9.425	-155.29584096950165	682.3097350182783	315.2685029482335	-203.99500659088488	467.9618249238488	48.450402578539695	-133.05176026608285	252.2989894834355	52.72379662702726
1887	9.43	-155.36931817019376	682.7737486099217	315.172938457561	-204.5965945883595	468.5676267945605	48.30548963513369	-134.48639728601597	253.4009219259252	52.510281912142645
1888	9.435	-155.4445888162565	683.2475635848353	315.0770541309851	-205.19684250261201	469.1850894813474	48.156531193838845	-135.91662354579714	254.52991539014522	52.2749359825507
1889	9.44	-155.52168254211108	683.7310942904578	314.9808401901465	-205.7951347287855	469.81384202068904	48.00353402936873	-137.34056400046293	255.68548925814576	52.01775607630841
1890	9.445	-155.60062967115448	684.2242455576451	314.88428382894193	-206.3908558325219	470.45348884245465	47.84651092665218	-138.75634643222	256.8671058874192	51.738792745073034
1891	9.45	-155.6814612098515	684.7269127880159	314.7873692132794	-206.98339212681037	471.1036103351621	47.685480869688064	-140.16210688409976	258.0741706454848	51.43815031440089
1892	9.455	-155.76420883826026	685.2389820561597	314.69007749179696	-207.57213325364697	471.7637634887087	47.52046921310494	-141.55599510070982	259.30603212044343	51.115987151652234
1893	9.46	-155.84890489687788	685.7603302264274	314.5923868176551	-208.1564737648272	472.43348261353975	47.35150783507698	-142.9361799546972	260.5619825110756	50.772515738425454
1894	9.465	-155.93558236970617	686.2908250839951	314.4942723814739	-208.73581469616337	473.11228013492405	47.17863527030902	-144.30085483746592	261.84125819937555	50.40800254532073
1895	9.47	-156.02427486344922	686.8303254798557	314.39570645544364	-209.3095651294135	473.7996474607032	47.001896821873984	-145.6482429927237	263.1430405077003	50.02276770773132
1896	9.475	-156.11501658276805	687.3786814893741	314.29665844859977	-209.8771437362306	474.49505592058574	46.821344650765916	-146.9766027715653	264.4664566419657	49.61718450227661
1897	9.48	-156.2078423015328	687.9357345840027	314.1970949732094	-210.4379802984862	475.1979577747618	46.63703784212045	-148.28423278803956	265.8105808215517	49.19167862441999
1898	9.485	-156.30278733002487	688.501317815735	314.09697992217804	-210.99151719939292	475.9077872893247	46.44904244715184	-149.5694769544872	267.1744355957808	48.74672726875092
1899	9.49	-156.39988747805887	689.0752560138509	313.9962745573426	-211.5372108799491	476.62396187570175	46.25743149996116	-150.83072937637812	268.5569933460207	48.28285801435099
